<?xml version="1.0" encoding="UTF-8"?>
<svg width="64" height="64" viewBox="0 0 64 64" xmlns="http://www.w3.org/2000/svg">
  <defs>
    <linearGradient id="primaryGrad" x1="0%" y1="0%" x2="100%" y2="100%">
      <stop offset="0%" stop-color="#4F46E5"/>
      <stop offset="100%" stop-color="#7C3AED"/>
    </linearGradient>
    <linearGradient id="secondaryGrad" x1="0%" y1="0%" x2="100%" y2="100%">
      <stop offset="0%" stop-color="#06B6D4"/>
      <stop offset="100%" stop-color="#0EA5E9"/>
    </linearGradient>
    <linearGradient id="accentGrad" x1="0%" y1="0%" x2="100%" y2="100%">
      <stop offset="0%" stop-color="#10B981"/>
      <stop offset="100%" stop-color="#059669"/>
    </linearGradient>
    <linearGradient id="warningGrad" x1="0%" y1="0%" x2="100%" y2="100%">
      <stop offset="0%" stop-color="#F59E0B"/>
      <stop offset="100%" stop-color="#D97706"/>
    </linearGradient>
  </defs>
  
  <!-- No background - minimal clean design -->
  
  <!-- Simplified geometric pieces -->
  <path d="M6 11 L31 7 L34 24 L27 34 L14 31 L6 18 Z" 
        fill="url(#primaryGrad)" 
        opacity="0.9"/>
  
  <path d="M39 6 L58 12 L56 27 L49 23 L42 16 L39 13 Z" 
        fill="url(#secondaryGrad)" 
        opacity="0.85"/>
  
  <path d="M7 36 L25 34 L28 46 L22 52 L12 48 L7 41 Z" 
        fill="url(#accentGrad)" 
        opacity="0.8"/>
  
  <path d="M30 42 L53 46 L50 58 L40 61 L32 54 L30 47 Z" 
        fill="url(#warningGrad)" 
        opacity="0.85"/>
  
  <!-- Small connecting dot for detail -->
  <circle cx="44" cy="35" r="2.4" fill="url(#secondaryGrad)" opacity="0.8"/>
  
  <!-- Central JS with stroke for visibility -->
  <text x="32" y="40" 
        font-family="'SF Pro Display', 'Segoe UI', -apple-system, sans-serif" 
        font-size="14" 
        font-weight="700" 
        text-anchor="middle" 
        fill="url(#primaryGrad)"
        stroke="#FFFFFF"
        stroke-width="0.9"
        paint-order="stroke fill">JS</text>
</svg>