<?xml version="1.0" encoding="UTF-8"?>
<svg width="128" height="128" viewBox="0 0 128 128" xmlns="http://www.w3.org/2000/svg">
  <defs>
    <linearGradient id="primaryGrad" x1="0%" y1="0%" x2="100%" y2="100%">
      <stop offset="0%" stop-color="#4F46E5"/>
      <stop offset="100%" stop-color="#7C3AED"/>
    </linearGradient>
    <linearGradient id="secondaryGrad" x1="0%" y1="0%" x2="100%" y2="100%">
      <stop offset="0%" stop-color="#06B6D4"/>
      <stop offset="100%" stop-color="#0EA5E9"/>
    </linearGradient>
    <linearGradient id="accentGrad" x1="0%" y1="0%" x2="100%" y2="100%">
      <stop offset="0%" stop-color="#10B981"/>
      <stop offset="100%" stop-color="#059669"/>
    </linearGradient>
    <linearGradient id="warningGrad" x1="0%" y1="0%" x2="100%" y2="100%">
      <stop offset="0%" stop-color="#F59E0B"/>
      <stop offset="100%" stop-color="#D97706"/>
    </linearGradient>
    <filter id="dropShadow" x="-20%" y="-20%" width="140%" height="140%">
      <feDropShadow dx="1" dy="2" stdDeviation="2" flood-opacity="0.2"/>
    </filter>
  </defs>
  
  <!-- No background - clean floating pieces -->
  
  <!-- Simplified collage pieces -->
  <!-- Main piece (top-left) -->
  <path d="M12 22 L59 16 L66 42 L52 62 L26 56 L12 36 Z" 
        fill="url(#primaryGrad)" 
        filter="url(#dropShadow)" 
        opacity="0.9"/>
  
  <!-- Secondary piece (top-right) -->
  <path d="M78 12 L118 22 L112 48 L100 42 L87 30 L78 24 Z" 
        fill="url(#secondaryGrad)" 
        filter="url(#dropShadow)" 
        opacity="0.85"/>
  
  <!-- Third piece (center-left) -->
  <path d="M8 70 L48 64 L54 86 L42 98 L22 91 L8 80 Z" 
        fill="url(#accentGrad)" 
        filter="url(#dropShadow)" 
        opacity="0.8"/>
  
  <!-- Fourth piece (bottom-right) -->
  <path d="M58 80 L106 86 L100 112 L82 118 L64 106 L58 91 Z" 
        fill="url(#warningGrad)" 
        filter="url(#dropShadow)" 
        opacity="0.85"/>
  
  <!-- Small connecting dots for detail -->
  <circle cx="66" cy="54" r="4.7" fill="url(#secondaryGrad)" opacity="0.8"/>
  <circle cx="88" cy="72" r="3.5" fill="url(#accentGrad)" opacity="0.8"/>
  
  <!-- Central JS text with enhanced visibility -->
  <text x="64" y="78" 
        font-family="'SF Pro Display', 'Segoe UI', -apple-system, sans-serif" 
        font-size="28" 
        font-weight="700" 
        text-anchor="middle" 
        fill="url(#primaryGrad)"
        stroke="#FFFFFF"
        stroke-width="1.1"
        paint-order="stroke fill">JS</text>
</svg>