<?xml version="1.0" encoding="UTF-8"?>
<svg width="512" height="512" viewBox="0 0 512 512" xmlns="http://www.w3.org/2000/svg">
  <defs>
    <!-- Gradients for depth and modern look -->
    <linearGradient id="primaryGrad" x1="0%" y1="0%" x2="100%" y2="100%">
      <stop offset="0%" stop-color="#4F46E5"/>
      <stop offset="100%" stop-color="#7C3AED"/>
    </linearGradient>
    <linearGradient id="secondaryGrad" x1="0%" y1="0%" x2="100%" y2="100%">
      <stop offset="0%" stop-color="#06B6D4"/>
      <stop offset="100%" stop-color="#0EA5E9"/>
    </linearGradient>
    <linearGradient id="accentGrad" x1="0%" y1="0%" x2="100%" y2="100%">
      <stop offset="0%" stop-color="#10B981"/>
      <stop offset="100%" stop-color="#059669"/>
    </linearGradient>
    <linearGradient id="warningGrad" x1="0%" y1="0%" x2="100%" y2="100%">
      <stop offset="0%" stop-color="#F59E0B"/>
      <stop offset="100%" stop-color="#D97706"/>
    </linearGradient>
    <!-- Drop shadows -->
    <filter id="dropShadow" x="-20%" y="-20%" width="140%" height="140%">
      <feDropShadow dx="4" dy="6" stdDeviation="8" flood-opacity="0.15"/>
    </filter>
    <filter id="glow" x="-50%" y="-50%" width="200%" height="200%">
      <feGaussianBlur stdDeviation="3" result="coloredBlur"/>
      <feMerge>
        <feMergeNode in="coloredBlur"/>
        <feMergeNode in="SourceGraphic"/>
      </feMerge>
    </filter>
  </defs>
  
  <!-- No background - pieces float freely -->
  
  <!-- Main collage pieces - representing micro-frontend components -->
  <!-- Large primary piece (top-left) -->
  <path d="M80 120 L220 100 L240 180 L200 240 L120 220 L80 160 Z" 
        fill="url(#primaryGrad)" 
        filter="url(#glow)" 
        opacity="0.95"/>
  
  <!-- Secondary piece (top-right) -->
  <path d="M280 80 L420 120 L400 200 L360 180 L320 140 L280 120 Z" 
        fill="url(#secondaryGrad)" 
        filter="url(#dropShadow)" 
        opacity="0.85"/>
  
  <!-- Third piece (center-left) -->
  <path d="M60 260 L180 240 L200 320 L160 360 L100 340 L60 300 Z" 
        fill="url(#accentGrad)" 
        filter="url(#dropShadow)" 
        opacity="0.8"/>
  
  <!-- Fourth piece (bottom-center) -->
  <path d="M220 300 L380 320 L360 400 L300 420 L240 380 L220 340 Z" 
        fill="url(#warningGrad)" 
        filter="url(#dropShadow)" 
        opacity="0.85"/>
  
  <!-- Fifth piece (right) -->
  <path d="M380 200 L460 240 L440 320 L400 300 L380 260 Z" 
        fill="url(#primaryGrad)" 
        filter="url(#dropShadow)" 
        opacity="0.7"/>
  
  <!-- Small connecting pieces for detail -->
  <circle cx="240" cy="200" r="16" fill="url(#secondaryGrad)" opacity="0.8"/>
  <circle cx="320" cy="260" r="12" fill="url(#accentGrad)" opacity="0.8"/>
  <circle cx="180" cy="300" r="10" fill="url(#primaryGrad)" opacity="0.8"/>
  
  <!-- Stylized "JS" text with enhanced visibility -->
  <g transform="translate(256, 400)">
    <text x="0" y="0" 
          font-family="'SF Pro Display', 'Segoe UI', -apple-system, sans-serif" 
          font-size="72" 
          font-weight="700" 
          text-anchor="middle" 
          fill="url(#primaryGrad)"
          stroke="#FFFFFF"
          stroke-width="2"
          paint-order="stroke fill">JS</text>
  </g>
  
  <!-- CollageJS text -->
  <g transform="translate(256, 450)">
    <text x="0" y="0" 
          font-family="'SF Pro Display', 'Segoe UI', -apple-system, sans-serif" 
          font-size="28" 
          font-weight="500" 
          text-anchor="middle" 
          fill="#374151">Collage</text>
  </g>
  
  <!-- Subtle connection lines showing pieces working together -->
  <line x1="150" y1="160" x2="200" y2="200" stroke="url(#primaryGrad)" stroke-width="3" opacity="0.3"/>
  <line x1="280" y1="140" x2="320" y2="180" stroke="url(#secondaryGrad)" stroke-width="3" opacity="0.3"/>
  <line x1="200" y1="280" x2="280" y2="300" stroke="url(#accentGrad)" stroke-width="3" opacity="0.3"/>
</svg>