<?xml version="1.0" encoding="UTF-8"?>
<svg width="256" height="256" viewBox="0 0 256 256" xmlns="http://www.w3.org/2000/svg">
  <defs>
    <linearGradient id="primaryGrad" x1="0%" y1="0%" x2="100%" y2="100%">
      <stop offset="0%" stop-color="#4F46E5"/>
      <stop offset="100%" stop-color="#7C3AED"/>
    </linearGradient>
    <linearGradient id="secondaryGrad" x1="0%" y1="0%" x2="100%" y2="100%">
      <stop offset="0%" stop-color="#06B6D4"/>
      <stop offset="100%" stop-color="#0EA5E9"/>
    </linearGradient>
    <linearGradient id="accentGrad" x1="0%" y1="0%" x2="100%" y2="100%">
      <stop offset="0%" stop-color="#10B981"/>
      <stop offset="100%" stop-color="#059669"/>
    </linearGradient>
    <linearGradient id="warningGrad" x1="0%" y1="0%" x2="100%" y2="100%">
      <stop offset="0%" stop-color="#F59E0B"/>
      <stop offset="100%" stop-color="#D97706"/>
    </linearGradient>
    <filter id="dropShadow" x="-20%" y="-20%" width="140%" height="140%">
      <feDropShadow dx="2" dy="3" stdDeviation="4" flood-opacity="0.15"/>
    </filter>
  </defs>
  
  <!-- Subtle universal background -->
  <defs>
    <radialGradient id="universalBg" cx="50%" cy="50%" r="70%">
      <stop offset="0%" stop-color="#F8FAFC" stop-opacity="0.9"/>
      <stop offset="100%" stop-color="#E2E8F0" stop-opacity="0.7"/>
    </radialGradient>
  </defs>
  <rect width="256" height="256" fill="url(#universalBg)"/>
  
  <!-- Stylized collage pieces arranged in a pleasing composition -->
  <path d="M40 60 L110 50 L120 90 L100 120 L60 110 L40 80 Z" 
        fill="url(#primaryGrad)" 
        filter="url(#dropShadow)" 
        opacity="0.9"/>
  
  <path d="M140 40 L210 60 L200 100 L180 90 L160 70 L140 60 Z" 
        fill="url(#secondaryGrad)" 
        filter="url(#dropShadow)" 
        opacity="0.85"/>
  
  <path d="M30 130 L90 120 L100 160 L80 180 L50 170 L30 150 Z" 
        fill="url(#accentGrad)" 
        filter="url(#dropShadow)" 
        opacity="0.8"/>
  
  <path d="M110 150 L190 160 L180 200 L150 210 L120 190 L110 170 Z" 
        fill="url(#warningGrad)" 
        filter="url(#dropShadow)" 
        opacity="0.85"/>
  
  <path d="M190 100 L230 120 L220 160 L200 150 L190 130 Z" 
        fill="url(#primaryGrad)" 
        filter="url(#dropShadow)" 
        opacity="0.7"/>
  
  <!-- Central focus point -->
  <circle cx="128" cy="128" r="8" fill="url(#secondaryGrad)" opacity="0.8"/>
  
  <!-- Clean, modern "JS" -->
  <text x="128" y="145" 
        font-family="'SF Pro Display', 'Segoe UI', -apple-system, sans-serif" 
        font-size="36" 
        font-weight="700" 
        text-anchor="middle" 
        fill="url(#primaryGrad)">JS</text>
</svg>