<?xml version="1.0" encoding="UTF-8"?>
<svg width="512" height="512" viewBox="0 0 512 512" xmlns="http://www.w3.org/2000/svg">
  <defs>
    <!-- Gradients for depth and modern look -->
    <linearGradient id="primaryGrad" x1="0%" y1="0%" x2="100%" y2="100%">
      <stop offset="0%" stop-color="#4F46E5"/>
      <stop offset="100%" stop-color="#7C3AED"/>
    </linearGradient>
    <linearGradient id="secondaryGrad" x1="0%" y1="0%" x2="100%" y2="100%">
      <stop offset="0%" stop-color="#06B6D4"/>
      <stop offset="100%" stop-color="#0EA5E9"/>
    </linearGradient>
    <linearGradient id="accentGrad" x1="0%" y1="0%" x2="100%" y2="100%">
      <stop offset="0%" stop-color="#10B981"/>
      <stop offset="100%" stop-color="#059669"/>
    </linearGradient>
    <linearGradient id="warningGrad" x1="0%" y1="0%" x2="100%" y2="100%">
      <stop offset="0%" stop-color="#F59E0B"/>
      <stop offset="100%" stop-color="#D97706"/>
    </linearGradient>
    <!-- Drop shadows -->
    <filter id="dropShadow" x="-20%" y="-20%" width="140%" height="140%">
      <feDropShadow dx="4" dy="6" stdDeviation="8" flood-opacity="0.15"/>
    </filter>
    <filter id="glow" x="-50%" y="-50%" width="200%" height="200%">
      <feGaussianBlur stdDeviation="3" result="coloredBlur"/>
      <feMerge>
        <feMergeNode in="coloredBlur"/>
        <feMergeNode in="SourceGraphic"/>
      </feMerge>
    </filter>
  </defs>
  
  <!-- No background - pieces float freely -->
  
  <!-- Main collage pieces - representing micro-frontend components -->
  <!-- Large primary piece (top-left) -->
  <path d="M50 85 L240 60 L265 170 L215 255 L110 225 L50 145 Z" 
        fill="url(#primaryGrad)" 
        filter="url(#glow)" 
        opacity="0.95"/>
  
  <!-- Secondary piece (top-right) -->
  <path d="M295 50 L460 85 L435 200 L385 170 L330 125 L295 100 Z" 
        fill="url(#secondaryGrad)" 
        filter="url(#dropShadow)" 
        opacity="0.85"/>
  
  <!-- Third piece (center-left) -->
  <path d="M30 245 L190 225 L215 325 L165 375 L85 350 L30 295 Z" 
        fill="url(#accentGrad)" 
        filter="url(#dropShadow)" 
        opacity="0.8"/>
  
  <!-- Fourth piece (bottom-center) -->
  <path d="M235 285 L410 310 L385 425 L315 450 L250 395 L235 335 Z" 
        fill="url(#warningGrad)" 
        filter="url(#dropShadow)" 
        opacity="0.85"/>
  
  <!-- Fifth piece (right) -->
  <path d="M405 185 L485 225 L460 325 L415 300 L405 245 Z" 
        fill="url(#primaryGrad)" 
        filter="url(#dropShadow)" 
        opacity="0.7"/>
  
  <!-- Small connecting pieces for detail -->
  <circle cx="255" cy="190" r="19" fill="url(#secondaryGrad)" opacity="0.8"/>
  <circle cx="340" cy="250" r="14" fill="url(#accentGrad)" opacity="0.8"/>
  <circle cx="190" cy="295" r="12" fill="url(#primaryGrad)" opacity="0.8"/>
  
  <!-- Stylized "JS" text with enhanced visibility -->
  <g transform="translate(256, 420)">
    <text x="0" y="0" 
          font-family="'SF Pro Display', 'Segoe UI', -apple-system, sans-serif" 
          font-size="85" 
          font-weight="700" 
          text-anchor="middle" 
          fill="url(#primaryGrad)"
          stroke="#FFFFFF"
          stroke-width="2.3"
          paint-order="stroke fill">JS</text>
  </g>
  
  <!-- CollageJS text -->
  <g transform="translate(256, 475)">
    <text x="0" y="0" 
          font-family="'SF Pro Display', 'Segoe UI', -apple-system, sans-serif" 
          font-size="33" 
          font-weight="500" 
          text-anchor="middle" 
          fill="#374151">Collage</text>
  </g>
  
  <!-- Subtle connection lines showing pieces working together -->
  <line x1="140" y1="145" x2="210" y2="190" stroke="url(#primaryGrad)" stroke-width="3.5" opacity="0.3"/>
  <line x1="300" y1="120" x2="345" y2="165" stroke="url(#secondaryGrad)" stroke-width="3.5" opacity="0.3"/>
  <line x1="210" y1="270" x2="300" y2="290" stroke="url(#accentGrad)" stroke-width="3.5" opacity="0.3"/>
</svg>